<?xml version="1.0" encoding="UTF-8"?>
<svg width="18px" height="18px" viewBox="0 0 18 18" version="1.1" xmlns="http://www.w3.org/2000/svg" xmlns:xlink="http://www.w3.org/1999/xlink">
    <!-- Generator: Sketch 41.2 (35397) - http://www.bohemiancoding.com/sketch -->
    <title>el-icon-plus copy</title>
    <desc>Created with Sketch.</desc>
    <defs></defs>
    <g id="切图" stroke="none" stroke-width="1" fill="none" fill-rule="evenodd">
        <g id="图标" transform="translate(-49.000000, -60.000000)" fill="#FF74B9">
            <path d="M56.7190618,67.7190618 L50.2800856,67.7190618 C49.5785055,67.7190618 49,68.2925574 49,69 C49,69.7123748 49.5731139,70.2809382 50.2800856,70.2809382 L56.7190618,70.2809382 L56.7190618,76.7199144 C56.7190618,77.4214945 57.2925574,78 58,78 C58.7123748,78 59.2809382,77.4268861 59.2809382,76.7199144 L59.2809382,70.2809382 L65.7199144,70.2809382 C66.4214945,70.2809382 67,69.7074426 67,69 C67,68.2876252 66.4268861,67.7190618 65.7199144,67.7190618 L59.2809382,67.7190618 L59.2809382,61.2800856 C59.2809382,60.5785055 58.7074426,60 58,60 C57.2876252,60 56.7190618,60.5731139 56.7190618,61.2800856 L56.7190618,67.7190618 Z" id="el-icon-plus-copy"></path>
        </g>
    </g>
</svg>