<?xml version="1.0" encoding="UTF-8"?>
<svg width="15px" height="15px" viewBox="0 0 15 15" version="1.1" xmlns="http://www.w3.org/2000/svg" xmlns:xlink="http://www.w3.org/1999/xlink">
    <!-- Generator: Sketch 41.2 (35397) - http://www.bohemiancoding.com/sketch -->
    <title>el-icon-plus</title>
    <desc>Created with Sketch.</desc>
    <defs></defs>
    <g id="切图" stroke="none" stroke-width="1" fill="none" fill-rule="evenodd">
        <g id="图标" transform="translate(-360.000000, -160.000000)" fill="#65ABEC">
            <path d="M366.428571,166.428571 L361.078763,166.428571 C360.482088,166.428571 360,166.908266 360,167.5 C360,168.095859 360.482979,168.571429 361.078763,168.571429 L366.428571,168.571429 L366.428571,173.921237 C366.428571,174.517912 366.908266,175 367.5,175 C368.095859,175 368.571429,174.517021 368.571429,173.921237 L368.571429,168.571429 L373.921237,168.571429 C374.517912,168.571429 375,168.091734 375,167.5 C375,166.904141 374.517021,166.428571 373.921237,166.428571 L368.571429,166.428571 L368.571429,161.078763 C368.571429,160.482088 368.091734,160 367.5,160 C366.904141,160 366.428571,160.482979 366.428571,161.078763 L366.428571,166.428571 Z" id="el-icon-plus"></path>
        </g>
    </g>
</svg>