<?xml version="1.0" encoding="UTF-8"?>
<svg width="26px" height="26px" viewBox="0 0 26 26" version="1.1" xmlns="http://www.w3.org/2000/svg" xmlns:xlink="http://www.w3.org/1999/xlink">
    <!-- Generator: Sketch 41.2 (35397) - http://www.bohemiancoding.com/sketch -->
    <title>el-icon-plus copy 2</title>
    <desc>Created with Sketch.</desc>
    <defs></defs>
    <g id="切图" stroke="none" stroke-width="1" fill="none" fill-rule="evenodd">
        <g id="图标" transform="translate(-58.000000, -141.000000)" fill="#EC499A">
            <path d="M69.1428571,152.142857 L59.8490126,152.142857 C58.8356191,152.142857 58,152.974328 58,154 C58,155.032822 58.8278311,155.857143 59.8490126,155.857143 L69.1428571,155.857143 L69.1428571,165.150987 C69.1428571,166.164381 69.9743283,167 71,167 C72.0328225,167 72.8571429,166.172169 72.8571429,165.150987 L72.8571429,155.857143 L82.1509874,155.857143 C83.1643809,155.857143 84,155.025672 84,154 C84,152.967178 83.1721689,152.142857 82.1509874,152.142857 L72.8571429,152.142857 L72.8571429,142.849013 C72.8571429,141.835619 72.0256717,141 71,141 C69.9671775,141 69.1428571,141.827831 69.1428571,142.849013 L69.1428571,152.142857 Z" id="el-icon-plus-copy-2"></path>
        </g>
    </g>
</svg>