<?xml version="1.0" encoding="UTF-8"?>
<svg width="16px" height="16px" viewBox="0 0 16 16" version="1.1" xmlns="http://www.w3.org/2000/svg" xmlns:xlink="http://www.w3.org/1999/xlink">
    <!-- Generator: Sketch 41.2 (35397) - http://www.bohemiancoding.com/sketch -->
    <title>el-icon-circle-close</title>
    <desc>Created with Sketch.</desc>
    <defs></defs>
    <g id="发表" stroke="none" stroke-width="1" fill="none" fill-rule="evenodd">
        <g id="发表-视频-上传视频" transform="translate(-1137.000000, -235.000000)" fill="#B5B5B5">
            <g id="视频加载" transform="translate(611.000000, 199.000000)">
                <path d="M533.747201,43.3373033 L530.545895,40.1359981 C530.328887,39.9189896 529.991297,39.9250802 529.779322,40.1370558 C529.573545,40.3428321 529.566872,40.6922383 529.778264,40.9036297 L532.979569,44.1049349 L529.778264,47.3062401 C529.561255,47.5232486 529.567346,47.8608384 529.779322,48.072814 C529.985098,48.2785902 530.334504,48.2852631 530.545895,48.0738716 L533.747201,44.8725665 L536.948506,48.0738716 C537.165514,48.2908802 537.503104,48.2847896 537.71508,48.072814 C537.920856,47.8670377 537.927529,47.5176315 537.716137,47.3062401 L534.514832,44.1049349 L537.716137,40.9036297 C537.933146,40.6866212 537.927055,40.3490314 537.71508,40.1370558 C537.509303,39.9312796 537.159897,39.9246067 536.948506,40.1359981 L533.747201,43.3373033 Z M533.599165,52 C537.796068,52 541.19833,48.418278 541.19833,44 C541.19833,39.581722 537.796068,36 533.599165,36 C529.402262,36 526,39.581722 526,44 C526,48.418278 529.402262,52 533.599165,52 Z" id="el-icon-circle-close"></path>
            </g>
        </g>
    </g>
</svg>