<?xml version="1.0" encoding="UTF-8"?>
<svg width="18px" height="18px" viewBox="0 0 18 18" version="1.1" xmlns="http://www.w3.org/2000/svg" xmlns:xlink="http://www.w3.org/1999/xlink">
    <!-- Generator: Sketch 41.2 (35397) - http://www.bohemiancoding.com/sketch -->
    <title>el-icon-search</title>
    <desc>Created with Sketch.</desc>
    <defs></defs>
    <g id="切图" stroke="none" stroke-width="1" fill="none" fill-rule="evenodd">
        <g id="图标" transform="translate(-277.000000, -291.000000)" fill="#B5B5B5">
            <path d="M286.966422,302.504884 L286.966422,302.504884 C289.515429,302.504884 291.581807,300.438506 291.581807,297.889499 C291.581807,295.340493 289.515429,293.274115 286.966422,293.274115 C284.417416,293.274115 282.351038,295.340493 282.351038,297.889499 C282.351038,300.438506 284.417416,302.504884 286.966422,302.504884 L286.966422,302.504884 Z M286.197192,304.770323 C282.735691,304.387674 280.043346,301.453002 280.043346,297.889499 C280.043346,294.06599 283.142913,290.966422 286.966422,290.966422 C290.789932,290.966422 293.889499,294.06599 293.889499,297.889499 C293.889499,301.184249 291.587944,303.941442 288.504884,304.641025 L288.504884,309.960788 C288.504884,310.516184 288.059938,310.966422 287.512822,310.966422 L287.189254,310.966422 C286.641353,310.966422 286.197192,310.519603 286.197192,309.960788 L286.197192,304.770323 Z" id="el-icon-search" transform="translate(286.966422, 300.966422) rotate(-45.000000) translate(-286.966422, -300.966422) "></path>
        </g>
    </g>
</svg>