<?xml version="1.0" encoding="UTF-8"?>
<svg width="18px" height="19px" viewBox="0 0 18 19" version="1.1" xmlns="http://www.w3.org/2000/svg" xmlns:xlink="http://www.w3.org/1999/xlink">
    <!-- Generator: Sketch 41.2 (35397) - http://www.bohemiancoding.com/sketch -->
    <title>el-icon-plus</title>
    <desc>Created with Sketch.</desc>
    <defs></defs>
    <g id="主页" stroke="none" stroke-width="1" fill="none" fill-rule="evenodd">
        <g transform="translate(-390.000000, -193.000000)" id="侧边栏" fill="#B5B5B5">
            <g transform="translate(361.000000, 107.000000)">
                <g id="发表" transform="translate(0.000000, 63.762259)">
                    <path d="M36.7190618,30.600191 L30.2800856,30.600191 C29.5785055,30.600191 29,31.1736866 29,31.8811293 C29,32.5935041 29.5731139,33.1620675 30.2800856,33.1620675 L36.7190618,33.1620675 L36.7190618,39.6010436 C36.7190618,40.3026237 37.2925574,40.8811293 38,40.8811293 C38.7123748,40.8811293 39.2809382,40.3080154 39.2809382,39.6010436 L39.2809382,33.1620675 L45.7199144,33.1620675 C46.4214945,33.1620675 47,32.5885719 47,31.8811293 C47,31.1687545 46.4268861,30.600191 45.7199144,30.600191 L39.2809382,30.600191 L39.2809382,24.1612149 C39.2809382,23.4596348 38.7074426,22.8811293 38,22.8811293 C37.2876252,22.8811293 36.7190618,23.4542431 36.7190618,24.1612149 L36.7190618,30.600191 Z" id="el-icon-plus"></path>
                </g>
            </g>
        </g>
    </g>
</svg>